<svg width="616" height="369" viewBox="0 0 616 369" fill="none" xmlns="http://www.w3.org/2000/svg">
<path d="M562.429 325.183C559.061 325.226 555.651 325.226 552.369 324.415C549.087 323.605 545.933 321.813 544.142 318.997C542.778 316.821 542.267 314.218 541.969 311.658C541.628 308.757 541.457 305.855 541.5 302.954C541.5 301.631 541.542 300.266 541.201 299.029C540.775 297.535 539.837 296.298 539.07 294.933C534.722 287.381 536.172 276.927 542.437 270.869C544.1 269.247 546.146 267.839 546.998 265.663C547.68 263.914 547.51 261.951 547.425 260.074C547.211 255.935 547.467 251.797 548.149 247.701C548.874 243.519 550.11 239.253 553.008 236.138C555.907 233.023 560.766 231.487 564.517 233.45C568.865 235.711 569.931 241.343 570.527 246.207C571.081 250.517 571.593 254.826 572.147 259.093C572.318 260.415 572.488 261.823 573.17 262.975C573.937 264.255 575.173 265.151 576.324 266.133C583.272 272.063 585.574 282.773 581.738 291.093C580.928 292.842 579.862 294.549 579.436 296.426C578.797 299.242 579.692 302.143 579.862 305.045C580.374 313.365 574.108 323.05 565.966 324.799L562.429 325.183Z" fill="#6FEEC8"/>
<path d="M545.762 286.186L546.871 286.143C546.871 286.314 547.808 301.759 560.127 310.25V259.135C554.458 254.229 554.373 247.914 554.373 247.658H555.481C555.481 247.701 555.523 253.119 560.127 257.642V241.13H561.235V289.557C569.803 284.095 571.977 270.613 572.019 270.485L573.128 270.655C573.042 271.253 570.783 285.418 561.235 290.879V366.058H560.127V311.53C546.743 302.826 545.762 286.314 545.762 286.186Z" fill="#2F0128"/>
<path d="M31.0654 368.063C31.0654 368.063 61.4997 360.639 91.6782 329.919C91.6782 329.919 120.066 299.455 138.48 300.479C156.894 301.503 199.349 330.175 199.349 330.175L222.366 343.487C222.366 343.487 255.827 361.621 299.816 344.511C309.023 340.927 341.972 329.322 355.058 329.151C374.964 328.895 384.938 329.237 421.042 354.751C438.433 367.039 464.519 364.991 483.956 359.871C503.393 354.751 511.918 347.669 518.738 344.511C532.037 338.367 569.121 331.199 601.303 368.063H31.0654Z" fill="#6FEEC8"/>
<path d="M156.383 306.154L155.317 305.045L134.175 324.586L131.021 301.418L129.529 301.631L135.667 347.413L110.518 333.503L105.446 317.674L103.997 318.143L108.558 332.437L95.8555 325.397L95.1309 326.762L135.923 349.29L138.48 368.149L139.972 367.935L134.388 326.463L156.383 306.154Z" fill="#2F0128"/>
<path d="M376.626 331.114L375.305 330.261L361.835 351.594L355.74 328.938L354.248 329.365L357.956 343.104L334.896 332.053L334.214 333.418L358.511 345.066L364.734 368.234L366.226 367.85L362.389 353.6L376.626 331.114Z" fill="#2F0128"/>
<path d="M548.874 340.416L547.723 339.392L530.289 359.274L525.515 342.25L524.024 342.677L531.185 368.277L532.676 367.85L530.758 361.066L548.874 340.416Z" fill="#2F0128"/>
<path d="M243.679 350.186L237.711 358.506L228.036 345.578L226.799 346.517L236.774 359.786L231.147 367.594L232.383 368.49L244.915 351.082L243.679 350.186Z" fill="#2F0128"/>
<path d="M305.741 169.535L466.991 305.599L305.741 169.535Z" fill="#5878D0"/>
<path d="M306.429 168.779L305.11 170.345L466.35 306.429L467.669 304.864L306.429 168.779Z" fill="#2F0128"/>
<path d="M408.68 348.607L421.979 366.527C421.979 366.527 427.606 367.039 433.232 366.527C433.232 366.527 424.025 353.215 421.979 341.439L408.68 348.607Z" fill="#07012D"/>
<path d="M461.621 340.671C461.621 340.671 444.571 356.543 444.741 360.127C444.997 366.015 451.391 366.783 451.391 366.783C451.391 366.783 453.181 358.634 470.7 351.978L461.621 340.671Z" fill="#07012D"/>
<path d="M378.033 283.584C378.033 283.584 376.498 301.504 392.866 302.016C409.234 302.528 406.677 309.696 406.677 309.696C406.677 309.696 407.956 304.832 423.301 304.32C438.646 303.808 462.686 302.784 466.778 305.344C466.778 305.344 464.732 284.352 485.704 280.256C485.704 280.256 497.468 279.232 505.652 295.104C505.652 295.104 508.721 298.688 515.371 296.64C515.371 296.64 520.486 301.76 513.325 307.392C506.164 313.024 487.75 312.512 487.75 312.512C487.75 312.512 475.985 330.944 477.008 341.184C477.008 341.184 480.589 356.032 487.75 362.176C494.911 368.32 482.635 366.272 482.635 366.272C482.635 366.272 475.985 361.664 463.198 343.744C463.198 343.744 437.623 347.84 418.186 344.256C418.186 344.256 402.841 355.008 400.795 366.784C400.795 366.784 395.168 366.784 393.634 364.224C391.247 360.256 394.145 352.96 400.795 344.768C400.795 344.768 402.841 343.232 397.214 336.064C391.588 328.896 395.68 316.608 401.306 313.024C401.306 313.024 374.708 321.728 372.151 307.392C372.151 307.392 375.22 308.416 378.289 307.392C378.289 307.392 364.478 296.64 378.033 283.584Z" fill="#F3C9DB"/>
<path d="M467.077 299.199L464.434 304.575C464.434 304.575 470.359 320.703 484.638 321.727C484.638 321.727 487.707 319.679 487.196 314.047C487.196 314.047 473.044 311.999 467.077 299.199Z" fill="#6F85EE"/>
<path d="M463.666 311.487C463.666 311.487 466.736 317.119 472.874 316.095C479.012 315.071 480.034 306.367 480.034 306.367C480.034 306.367 480.802 286.655 484.766 280.383C484.766 280.383 467.972 279.487 463.666 295.53C462.643 299.412 462.132 305.855 463.666 311.487Z" fill="#050044"/>
<path d="M515.887 303.202C517.479 302.62 518.108 300.335 517.292 298.1C516.475 295.865 514.523 294.525 512.931 295.107C511.339 295.69 510.71 297.974 511.527 300.209C512.343 302.445 514.295 303.785 515.887 303.202Z" fill="#050044"/>
<path d="M497.937 298.688C499.067 298.688 499.983 297.771 499.983 296.64C499.983 295.509 499.067 294.592 497.937 294.592C496.807 294.592 495.891 295.509 495.891 296.64C495.891 297.771 496.807 298.688 497.937 298.688Z" fill="#050044"/>
<path d="M249.391 242.283C250.115 238.571 253.44 236.011 257.191 235.627C258.001 235.542 258.896 235.584 259.621 235.158C260.558 234.646 260.985 233.622 261.496 232.683C264.864 226.667 273.729 224.662 279.356 228.63C282.084 220.267 292.57 216.299 301.052 218.603C309.534 220.907 316.013 227.904 320.446 235.499C323.601 233.366 327.821 232.811 331.401 234.091C335.024 235.371 337.923 238.443 339.031 242.112L249.391 242.283Z" fill="#DDE2FB"/>
<path d="M475.047 169.024C486.842 169.024 496.403 159.454 496.403 147.648C496.403 135.843 486.842 126.272 475.047 126.272C463.253 126.272 453.692 135.843 453.692 147.648C453.692 159.454 463.253 169.024 475.047 169.024Z" fill="#F3C9DB"/>
<path d="M505.354 172.949C504.416 168.128 500.068 164.757 495.209 164.288C494.143 164.16 492.993 164.203 492.055 163.691C490.861 163.008 490.264 161.685 489.582 160.448C485.235 152.597 473.641 149.995 466.352 155.2C462.814 144.32 449.131 139.158 438.091 142.144C427.052 145.131 418.612 154.261 412.857 164.16C408.723 161.344 403.267 160.661 398.578 162.325C393.889 163.989 390.096 167.957 388.646 172.736L505.354 172.949Z" fill="white"/>
<path d="M505.865 172.779C505.013 168.981 502.327 165.995 498.704 164.544C496.104 163.52 492.609 164.203 490.861 161.643C489.668 159.936 488.901 158.187 487.366 156.693C481.782 151.275 472.533 150.293 466.054 154.645C466.309 154.773 466.565 154.859 466.863 154.987C463.283 144.619 451.646 139.584 441.246 140.907C428.33 142.571 418.612 153.152 412.389 163.819C412.644 163.733 412.857 163.691 413.113 163.605C403.778 157.632 391.545 162.027 388.092 172.523C387.964 172.864 388.263 173.205 388.604 173.205C401.775 173.248 414.946 173.248 428.16 173.291C449.089 173.333 469.975 173.376 490.904 173.419C495.72 173.419 500.537 173.419 505.396 173.461C506.078 173.461 506.078 172.395 505.396 172.395C492.225 172.352 479.054 172.352 465.84 172.309C444.912 172.267 424.025 172.224 403.096 172.181C398.28 172.181 393.463 172.181 388.604 172.139C388.774 172.352 388.945 172.608 389.115 172.821C392.397 162.965 403.821 158.955 412.559 164.544C412.815 164.715 413.156 164.587 413.284 164.331C419.123 154.389 427.947 144.491 439.796 142.187C449.984 140.224 462.217 144.875 465.798 155.2C465.883 155.499 466.267 155.712 466.608 155.541C473.3 151.019 483.146 152.555 488.091 159.04C489.114 160.405 489.668 162.112 490.861 163.307C491.969 164.416 493.333 164.501 494.783 164.672C499.599 165.227 503.734 168.085 504.842 172.992C504.97 173.76 505.993 173.461 505.865 172.779Z" fill="#15173F"/>
<path d="M308.213 92.3093C308.938 88.5973 312.263 86.0373 316.014 85.6533C316.823 85.568 317.719 85.6107 318.443 85.184C319.381 84.672 319.807 83.648 320.319 82.7093C323.686 76.6933 332.552 74.688 338.178 78.656C340.906 70.2933 351.392 66.3253 359.875 68.6293C368.357 70.9333 374.836 77.9307 379.269 85.5253C382.423 83.392 386.643 82.8373 390.224 84.1173C393.847 85.3973 396.745 88.4693 397.853 92.1387L308.213 92.3093Z" fill="#DDE2FB"/>
<path d="M180.082 154.773C179.358 151.061 176.033 148.501 172.282 148.117C171.472 148.032 170.577 148.075 169.852 147.648C168.915 147.136 168.488 146.112 167.977 145.173C164.61 139.157 155.744 137.152 150.117 141.12C147.389 132.757 136.903 128.789 128.421 131.093C119.939 133.397 113.46 140.395 109.027 147.989C105.872 145.856 101.652 145.301 98.0719 146.581C94.4488 147.861 91.5503 150.933 90.442 154.603L180.082 154.773Z" fill="white"/>
<path d="M180.594 154.645C179.912 151.701 177.908 149.44 175.138 148.288C172.708 147.306 170.406 147.989 168.744 145.472C167.934 144.234 167.295 143.082 166.187 142.058C161.796 138.005 154.848 137.365 149.861 140.65C150.117 140.778 150.373 140.864 150.671 140.992C147.858 133.013 138.992 129.088 130.978 130.069C120.961 131.306 113.459 139.498 108.6 147.733C108.856 147.648 109.069 147.605 109.325 147.52C102.036 142.912 92.6585 146.282 89.9305 154.432C89.8026 154.773 90.101 155.114 90.442 155.114C100.544 155.114 110.646 155.157 120.748 155.157C136.861 155.2 152.973 155.2 169.042 155.242C172.751 155.242 176.417 155.242 180.125 155.242C180.807 155.242 180.807 154.176 180.125 154.176C170.023 154.176 159.921 154.133 149.819 154.133C133.706 154.09 117.594 154.09 101.524 154.048C97.8161 154.048 94.1504 154.048 90.442 154.048C90.6125 154.261 90.783 154.517 90.9535 154.73C93.4684 147.221 102.079 144.234 108.771 148.458C109.026 148.629 109.367 148.501 109.495 148.245C113.971 140.693 120.578 133.226 129.529 131.349C137.415 129.685 146.792 133.226 149.605 141.205C149.733 141.504 150.074 141.717 150.415 141.546C155.573 138.09 163.16 139.285 166.869 144.362C168.36 146.453 168.659 148.032 171.429 148.501C175.351 149.141 178.633 150.592 179.613 154.858C179.741 155.584 180.764 155.285 180.594 154.645Z" fill="#15173F"/>
<path d="M43.2135 309.653C47.8596 309.695 52.591 309.695 57.0666 308.586C61.5422 307.477 65.9326 305.002 68.4048 301.077C70.323 298.09 70.9623 294.463 71.3886 290.922C71.8575 286.954 72.1132 282.901 72.0706 278.89C72.0706 277.055 71.9853 275.221 72.4968 273.429C73.0936 271.381 74.3723 269.631 75.438 267.797C81.4481 257.343 79.4447 242.965 70.7918 234.559C68.4901 232.298 65.6768 230.335 64.4833 227.349C63.503 224.917 63.7587 222.229 63.8866 219.626C64.185 213.909 63.844 208.149 62.9062 202.517C61.9258 196.757 60.1782 190.869 56.2141 186.559C52.25 182.25 45.5152 180.117 40.315 182.847C34.3475 186.005 32.813 193.727 32.0031 200.469C31.2785 206.399 30.5112 212.33 29.7866 218.303C29.5735 220.138 29.3177 222.058 28.38 223.679C27.357 225.471 25.6093 226.709 24.0322 228.031C14.4842 236.266 11.2447 251.029 16.5302 262.506C17.6385 264.938 19.1303 267.285 19.7271 269.887C20.5796 273.77 19.3861 277.823 19.1303 281.791C18.4483 293.311 27.0586 306.666 38.3542 309.055L43.2135 309.653Z" fill="#6FEEC8"/>
<path d="M66.231 255.764L64.6965 255.679C64.6965 255.892 63.4177 277.226 46.4103 288.959V218.388C54.2533 211.604 54.3386 202.9 54.3386 202.516H52.8041C52.8041 202.602 52.7188 210.068 46.4103 216.298V193.514H44.8758V260.372C33.0261 252.863 30.0423 234.218 29.9997 234.004L28.4652 234.218C28.5931 235.071 31.7473 254.57 44.8758 262.122V365.93H46.4103V290.794C64.867 278.762 66.231 255.978 66.231 255.764Z" fill="#2F0128"/>
<path d="M255.06 29.4608C255.06 29.4608 256.083 44.3089 243.039 59.4129C243.039 59.4129 275.775 28.6929 249.945 7.44485C249.945 7.44485 240.695 -6.20848 222.238 3.64752C218.487 5.65285 215.674 9.06619 214.523 13.1622C213.074 18.4102 212.392 26.9009 216.186 39.1462C216.186 39.1462 202.375 38.1222 188.053 55.0182C188.053 55.0182 178.846 65.2582 175.266 67.3062C175.266 67.3062 187.03 60.1382 192.145 53.9942C192.145 53.9942 200.329 47.3382 204.933 45.8022C204.933 45.8022 184.473 61.6742 178.846 71.4022C178.846 71.4022 183.45 112.362 209.025 113.386L241.249 56.5542C241.249 56.5969 255.06 44.8209 255.06 29.4608Z" fill="#050044"/>
<path d="M237.413 43.0286V43.1566L237.115 47.338L235.921 63.5513L220.832 59.1993C221.343 53.0553 222.878 37.6953 222.878 37.6953L218.274 28.9913L226.97 7.4873L249.22 13.3753C256.85 46.6126 237.413 43.0286 237.413 43.0286Z" fill="#F3C9DB"/>
<path d="M231.531 26.9013C231.531 26.9013 246.364 26.9013 249.945 12.5653L224.625 5.65332L216.441 29.7173L220.533 39.4453C220.533 39.4453 224.881 47.3813 210.559 48.4053C210.559 48.4053 224.37 52.5013 227.439 37.1413L227.95 31.5093C227.95 31.5093 219.766 24.8533 223.858 20.7573C223.858 20.7573 226.416 18.7093 229.485 21.2693C229.485 21.2693 236.646 23.8293 245.341 15.6373C245.341 15.6373 242.272 24.3413 231.531 26.9013Z" fill="#050044"/>
<path d="M317.932 181.483C317.932 181.483 315.886 186.603 310.259 181.483C310.259 181.483 309.748 185.067 306.167 183.531C306.167 183.531 304.377 186.859 301.052 184.555C301.052 184.555 301.819 187.883 297.472 186.603C292.825 185.237 287.242 173.803 287.242 173.803L275.477 161.088L270.831 156.096L281.572 149.227L283.618 151.445L294.871 163.563C294.871 163.563 301.521 162.539 306.124 166.635C310.728 170.731 316.354 170.219 316.354 170.219C316.354 170.219 315.843 177.387 308.17 172.267L317.932 181.483Z" fill="#F3C9DB"/>
<path d="M207.746 286.144L199.349 292.8L188.309 301.504L176.544 286.144L192.103 272.832L195.001 270.314L207.746 286.144Z" fill="#F3C9DB"/>
<path d="M207.746 286.144L199.349 292.8L192.103 272.832L195.001 270.314L207.746 286.144Z" fill="#07012D"/>
<path d="M256.594 253.162L244.19 263.872L209.067 294.122C200.372 286.442 192.188 272.618 192.188 272.618C206.254 259.392 229.655 231.744 238.095 221.674C240.098 219.285 241.249 217.877 241.249 217.877L256.594 253.162Z" fill="#2E2E75"/>
<path d="M273.943 343.232H253.014V314.048H273.772L273.9 333.077L273.943 343.232Z" fill="#F3C9DB"/>
<path d="M256.594 253.162L244.19 263.872C243.082 253.333 240.993 235.882 238.095 221.674C240.098 219.285 241.249 217.877 241.249 217.877L256.594 253.162Z" fill="#07012D"/>
<path d="M273.9 333.077L253.014 327.104V314.048H273.772L273.9 333.077Z" fill="#07012D"/>
<path d="M277.012 326.848H250.456C250.456 326.848 250.456 305.856 250.456 280.256C250.456 254.656 250.456 239.296 227.95 202.475C217.635 185.579 214.523 170.731 214.182 159.595C214.054 156.053 214.225 152.853 214.566 150.123C215.418 142.741 217.251 138.475 217.251 138.475H256.637L257.617 142.315L273.005 201.963C283.661 229.611 277.012 326.848 277.012 326.848Z" fill="#5F5FAB"/>
<path d="M221.514 146.837L221.173 147.69L213.5 167.317L209.323 178.069C209.323 178.069 210.73 202.602 199.434 201.493C199.434 201.493 196.408 203.114 194.745 200.085C194.745 200.085 192.742 200.682 190.568 197.696C190.568 197.696 188.011 197.269 187.371 193.728L187.03 193.472C185.197 192.064 184.899 189.418 186.348 187.584C188.096 185.408 191.165 182.549 196.578 179.562L202.418 157.76L203.782 152.682L220.533 147.136L221.514 146.837Z" fill="#F3C9DB"/>
<path d="M221.173 147.69L213.543 167.316L202.46 157.759L203.824 152.682L220.576 147.178L221.173 147.69Z" fill="#07012D"/>
<path d="M283.661 151.445L275.52 161.088L270.874 156.096L281.615 149.227L283.661 151.445Z" fill="#07012D"/>
<path d="M257.575 142.315L225.137 148.459L214.523 150.123C215.376 142.741 217.209 138.475 217.209 138.475H256.594L257.575 142.315Z" fill="#2F0128"/>
<path d="M284.173 150.762L271.897 157.418L264.267 149.524L257.83 142.868L257.063 142.058L223.602 143.679L215.461 162.324L202.375 157.46L207.746 123.924L209.92 89.3645C210.644 75.0711 215.163 60.9911 221.002 52.2871C221.002 52.2871 230.209 60.4791 236.347 58.4311C236.347 58.4311 267.293 86.8471 253.483 105.791C253.483 105.791 253.568 106.004 253.781 106.346C254.25 107.242 255.23 109.119 256.637 111.722C261.837 121.108 272.749 139.711 284.173 150.762Z" fill="#C2CBF9"/>
<path d="M224.114 143.978L223.091 143.765L229.698 113.898L230.763 98.2822L231.786 98.3676L230.721 114.069L224.114 143.978Z" fill="white"/>
<path d="M275.562 345.28L276.5 349.845C277.182 351.978 278.205 352.874 279.697 353.386L299.518 360.256C300.882 360.725 301.862 362.005 301.777 363.456C301.734 364.224 301.436 365.034 300.626 365.845C299.986 366.442 299.134 366.784 298.281 366.784L251.905 366.57C249.817 366.57 248.24 364.693 248.581 362.645L252.119 343.445C252.374 341.738 253.909 340.501 255.656 340.586L272.408 341.525C274.284 341.696 275.307 342.762 275.562 345.28Z" fill="#15173F"/>
<path d="M192.742 300.522L190.142 304.192C189.076 306.069 189.161 307.392 189.801 308.757L198.155 327.232C198.709 328.512 198.454 330.048 197.431 330.944C196.877 331.413 196.109 331.754 195.001 331.712C194.149 331.669 193.381 331.285 192.785 330.688L162.18 298.048C160.816 296.597 161.072 294.25 162.734 293.141L178.505 282.901C179.869 281.962 181.745 282.218 182.81 283.498L193.253 295.872C194.404 297.237 194.319 298.645 192.742 300.522Z" fill="#15173F"/>
<path d="M302.842 173.546L310.003 181.226L302.842 173.546Z" fill="#5878D0"/>
<path d="M303.227 173.225L302.479 173.924L309.633 181.597L310.381 180.899L303.227 173.225Z" fill="#2F0128"/>
<path d="M300.285 176.106L305.911 183.274L300.285 176.106Z" fill="#5878D0"/>
<path d="M300.668 175.794L299.864 176.427L305.499 183.606L306.304 182.974L300.668 175.794Z" fill="#2F0128"/>
<path d="M296.704 178.666L301.308 184.81L296.704 178.666Z" fill="#5878D0"/>
<path d="M297.112 178.366L296.293 178.98L300.897 185.124L301.715 184.51L297.112 178.366Z" fill="#2F0128"/>
<path d="M187.286 193.514L190.355 190.954L187.286 193.514Z" fill="#5878D0"/>
<path d="M190.015 190.551L186.938 193.12L187.593 193.906L190.67 191.338L190.015 190.551Z" fill="#2F0128"/>
<path d="M190.355 197.61L193.424 194.538L190.355 197.61Z" fill="#5878D0"/>
<path d="M193.06 194.175L189.986 197.252L190.71 197.976L193.784 194.899L193.06 194.175Z" fill="#2F0128"/>
<path d="M194.958 200.169L197.004 197.609L194.958 200.169Z" fill="#5878D0"/>
<path d="M196.618 197.274L194.568 199.84L195.368 200.479L197.417 197.913L196.618 197.274Z" fill="#2F0128"/>
<path d="M199.562 201.195L201.608 198.635L199.562 201.195Z" fill="#5878D0"/>
<path d="M201.221 198.297L199.172 200.863L199.971 201.503L202.02 198.936L201.221 198.297Z" fill="#2F0128"/>
<path d="M264.309 149.525L257.873 142.869C256.893 133.056 254.165 109.333 253.824 106.304C254.292 107.2 255.273 109.077 256.679 111.68L264.309 149.525Z" fill="#07012D"/>
<path d="M237.37 43.157L237.072 47.3384C233.705 45.0344 231.36 40.6824 231.275 40.5117C233.236 41.7064 235.537 42.5597 237.37 43.157Z" fill="#07012D"/>
<path d="M264.224 326.89L263.201 326.804C263.244 326.164 267.208 263.06 261.155 233.279C255.102 203.455 235.708 143.807 235.537 143.21L236.518 142.911C236.731 143.508 256.083 203.199 262.178 233.066C268.273 263.018 264.267 326.25 264.224 326.89Z" fill="white"/>
<path d="M615.241 366.527H0.119629V368.575H615.241V366.527Z" fill="#2F0128"/>
</svg>
