<svg width="651" height="651" viewBox="0 0 651 651" fill="none" xmlns="http://www.w3.org/2000/svg">
<path d="M152.348 538.626H150.735V251.061H152.348V538.626Z" fill="#AFC24E"/>
<path d="M148.69 508.883C125.114 508.432 116.705 489.662 116.705 489.662C148.54 489.662 148.69 508.883 148.69 508.883Z" fill="#AFC24E"/>
<path d="M185.978 489.662C185.978 489.662 177.569 508.432 153.994 508.883C153.994 508.883 154.144 489.662 185.978 489.662Z" fill="#AFC24E"/>
<path d="M148.69 481.434C125.114 480.983 116.705 462.213 116.705 462.213C148.54 462.213 148.69 481.434 148.69 481.434Z" fill="#AFC24E"/>
<path d="M185.978 462.212C185.978 462.212 177.569 480.983 153.994 481.433C153.994 481.433 154.144 462.212 185.978 462.212Z" fill="#AFC24E"/>
<path d="M148.69 453.984C125.114 453.533 116.705 434.763 116.705 434.763C148.54 434.763 148.69 453.984 148.69 453.984Z" fill="#AFC24E"/>
<path d="M185.978 434.763C185.978 434.763 177.569 453.533 153.994 453.984C153.994 453.984 154.144 434.763 185.978 434.763Z" fill="#AFC24E"/>
<path d="M148.69 426.534C125.114 426.084 116.705 407.313 116.705 407.313C148.54 407.313 148.69 426.534 148.69 426.534Z" fill="#AFC24E"/>
<path d="M185.978 407.313C185.978 407.313 177.569 426.084 153.994 426.534C153.994 426.534 154.144 407.313 185.978 407.313Z" fill="#AFC24E"/>
<path d="M148.69 399.085C125.114 398.634 116.705 379.864 116.705 379.864C148.54 379.864 148.69 399.085 148.69 399.085Z" fill="#AFC24E"/>
<path d="M185.978 379.864C185.978 379.864 177.569 398.634 153.994 399.085C153.994 399.085 154.144 379.864 185.978 379.864Z" fill="#AFC24E"/>
<path d="M148.69 371.635C125.114 371.185 116.705 352.414 116.705 352.414C148.54 352.414 148.69 371.635 148.69 371.635Z" fill="#AFC24E"/>
<path d="M185.978 352.415C185.978 352.415 177.569 371.185 153.994 371.635C153.994 371.635 154.144 352.415 185.978 352.415Z" fill="#AFC24E"/>
<path d="M148.69 344.186C125.114 343.736 116.705 324.965 116.705 324.965C148.54 324.965 148.69 344.186 148.69 344.186Z" fill="#AFC24E"/>
<path d="M185.978 324.965C185.978 324.965 177.569 343.736 153.994 344.186C153.994 344.186 154.144 324.965 185.978 324.965Z" fill="#AFC24E"/>
<path d="M148.69 316.736C125.114 316.286 116.705 297.515 116.705 297.515C148.54 297.515 148.69 316.736 148.69 316.736Z" fill="#AFC24E"/>
<path d="M185.978 297.515C185.978 297.515 177.569 316.286 153.994 316.736C153.994 316.736 154.144 297.515 185.978 297.515Z" fill="#AFC24E"/>
<path d="M148.69 289.287C125.114 288.836 116.705 270.066 116.705 270.066C148.54 270.066 148.69 289.287 148.69 289.287Z" fill="#AFC24E"/>
<path d="M185.978 270.066C185.978 270.066 177.569 288.836 153.994 289.287C153.994 289.287 154.144 270.066 185.978 270.066Z" fill="#AFC24E"/>
<path d="M148.69 261.837C125.114 261.387 116.705 242.617 116.705 242.617C148.54 242.617 148.69 261.837 148.69 261.837Z" fill="#AFC24E"/>
<path d="M151.664 247.456C136.62 229.298 145.355 210.677 145.355 210.677C166.13 234.798 151.664 247.456 151.664 247.456Z" fill="#AFC24E"/>
<path d="M185.978 242.617C185.978 242.617 177.569 261.387 153.994 261.837C153.994 261.837 154.144 242.617 185.978 242.617Z" fill="#AFC24E"/>
<path d="M252.346 543.663H251.313V359.468H252.346V543.663Z" fill="#728536"/>
<path d="M250.003 524.611C234.902 524.323 229.516 512.3 229.516 512.3C249.907 512.3 250.003 524.611 250.003 524.611Z" fill="#728536"/>
<path d="M273.887 512.299C273.887 512.299 268.501 524.323 253.4 524.611C253.4 524.611 253.496 512.299 273.887 512.299Z" fill="#728536"/>
<path d="M250.003 507.029C234.902 506.741 229.516 494.718 229.516 494.718C249.907 494.718 250.003 507.029 250.003 507.029Z" fill="#728536"/>
<path d="M273.887 494.718C273.887 494.718 268.501 506.741 253.4 507.029C253.4 507.029 253.496 494.718 273.887 494.718Z" fill="#728536"/>
<path d="M250.003 489.447C234.902 489.158 229.516 477.135 229.516 477.135C249.907 477.135 250.003 489.447 250.003 489.447Z" fill="#728536"/>
<path d="M273.887 477.135C273.887 477.135 268.501 489.158 253.4 489.447C253.4 489.447 253.496 477.135 273.887 477.135Z" fill="#728536"/>
<path d="M250.003 471.865C234.902 471.576 229.516 459.553 229.516 459.553C249.907 459.553 250.003 471.865 250.003 471.865Z" fill="#728536"/>
<path d="M273.887 459.553C273.887 459.553 268.501 471.576 253.4 471.865C253.4 471.865 253.496 459.553 273.887 459.553Z" fill="#728536"/>
<path d="M250.003 454.282C234.902 453.994 229.516 441.97 229.516 441.97C249.907 441.97 250.003 454.282 250.003 454.282Z" fill="#728536"/>
<path d="M273.887 441.971C273.887 441.971 268.501 453.994 253.4 454.283C253.4 454.283 253.496 441.971 273.887 441.971Z" fill="#728536"/>
<path d="M250.003 436.7C234.902 436.411 229.516 424.389 229.516 424.389C249.907 424.389 250.003 436.7 250.003 436.7Z" fill="#728536"/>
<path d="M273.887 424.388C273.887 424.388 268.501 436.411 253.4 436.7C253.4 436.7 253.496 424.388 273.887 424.388Z" fill="#728536"/>
<path d="M250.003 419.118C234.902 418.829 229.516 406.807 229.516 406.807C249.907 406.807 250.003 419.118 250.003 419.118Z" fill="#728536"/>
<path d="M273.887 406.806C273.887 406.806 268.501 418.829 253.4 419.118C253.4 419.118 253.496 406.806 273.887 406.806Z" fill="#728536"/>
<path d="M250.003 401.536C234.902 401.247 229.516 389.224 229.516 389.224C249.907 389.224 250.003 401.536 250.003 401.536Z" fill="#728536"/>
<path d="M273.887 389.224C273.887 389.224 268.501 401.247 253.4 401.536C253.4 401.536 253.496 389.224 273.887 389.224Z" fill="#728536"/>
<path d="M250.003 383.954C234.902 383.665 229.516 371.642 229.516 371.642C249.907 371.642 250.003 383.954 250.003 383.954Z" fill="#728536"/>
<path d="M273.887 371.642C273.887 371.642 268.501 383.665 253.4 383.954C253.4 383.954 253.496 371.642 273.887 371.642Z" fill="#728536"/>
<path d="M250.003 366.371C234.902 366.083 229.516 354.06 229.516 354.06C249.907 354.06 250.003 366.371 250.003 366.371Z" fill="#728536"/>
<path d="M251.908 357.159C242.272 345.529 247.867 333.601 247.867 333.601C261.174 349.052 251.908 357.159 251.908 357.159Z" fill="#728536"/>
<path d="M273.887 354.06C273.887 354.06 268.501 366.083 253.4 366.371C253.4 366.371 253.496 354.06 273.887 354.06Z" fill="#728536"/>
<path d="M437.878 542.75H436.639V321.791H437.878V542.75Z" fill="#728536"/>
<path d="M435.068 519.896C416.953 519.55 410.491 505.127 410.491 505.127C434.952 505.127 435.068 519.896 435.068 519.896Z" fill="#728536"/>
<path d="M463.719 505.127C463.719 505.127 457.258 519.55 439.143 519.896C439.143 519.896 439.258 505.127 463.719 505.127Z" fill="#728536"/>
<path d="M435.067 498.804C416.952 498.458 410.491 484.035 410.491 484.035C434.952 484.035 435.067 498.804 435.067 498.804Z" fill="#728536"/>
<path d="M463.719 484.035C463.719 484.035 457.258 498.458 439.143 498.804C439.143 498.804 439.258 484.035 463.719 484.035Z" fill="#728536"/>
<path d="M435.067 477.712C416.952 477.366 410.491 462.944 410.491 462.944C434.952 462.944 435.067 477.712 435.067 477.712Z" fill="#728536"/>
<path d="M463.719 462.944C463.719 462.944 457.258 477.366 439.143 477.712C439.143 477.712 439.258 462.944 463.719 462.944Z" fill="#728536"/>
<path d="M435.067 456.621C416.952 456.275 410.491 441.852 410.491 441.852C434.952 441.852 435.067 456.621 435.067 456.621Z" fill="#728536"/>
<path d="M463.719 441.852C463.719 441.852 457.258 456.275 439.143 456.621C439.143 456.621 439.258 441.852 463.719 441.852Z" fill="#728536"/>
<path d="M435.067 435.529C416.952 435.183 410.491 420.76 410.491 420.76C434.952 420.76 435.067 435.529 435.067 435.529Z" fill="#728536"/>
<path d="M463.719 420.761C463.719 420.761 457.258 435.183 439.143 435.53C439.143 435.53 439.258 420.761 463.719 420.761Z" fill="#728536"/>
<path d="M435.067 414.438C416.952 414.092 410.491 399.669 410.491 399.669C434.952 399.669 435.067 414.438 435.067 414.438Z" fill="#728536"/>
<path d="M463.719 399.669C463.719 399.669 457.258 414.092 439.143 414.438C439.143 414.438 439.258 399.669 463.719 399.669Z" fill="#728536"/>
<path d="M435.068 393.347C416.952 393 410.491 378.578 410.491 378.578C434.952 378.578 435.068 393.347 435.068 393.347Z" fill="#728536"/>
<path d="M463.719 378.577C463.719 378.577 457.258 393 439.143 393.346C439.143 393.346 439.258 378.577 463.719 378.577Z" fill="#728536"/>
<path d="M435.068 372.255C416.953 371.909 410.491 357.486 410.491 357.486C434.952 357.486 435.068 372.255 435.068 372.255Z" fill="#728536"/>
<path d="M463.719 357.486C463.719 357.486 457.258 371.909 439.143 372.255C439.143 372.255 439.258 357.486 463.719 357.486Z" fill="#728536"/>
<path d="M435.068 351.164C416.953 350.818 410.491 336.395 410.491 336.395C434.952 336.395 435.068 351.164 435.068 351.164Z" fill="#728536"/>
<path d="M463.719 336.395C463.719 336.395 457.258 350.818 439.143 351.164C439.143 351.164 439.258 336.395 463.719 336.395Z" fill="#728536"/>
<path d="M435.068 330.072C416.953 329.726 410.491 315.303 410.491 315.303C434.952 315.303 435.068 330.072 435.068 330.072Z" fill="#728536"/>
<path d="M437.353 319.021C425.793 305.069 432.505 290.761 432.505 290.761C448.468 309.296 437.353 319.021 437.353 319.021Z" fill="#728536"/>
<path d="M463.719 315.303C463.719 315.303 457.257 329.726 439.143 330.072C439.143 330.072 439.258 315.303 463.719 315.303Z" fill="#728536"/>
<path d="M116.244 544.262C116.244 544.262 134.072 534.393 163.68 536.303C193.288 538.213 215.255 509.878 261.736 543.943L116.244 544.262Z" fill="#AFC24E"/>
<path d="M348.397 543.223C348.397 543.223 394.588 539.288 413.428 541.027C432.269 542.766 490.239 532.912 515.456 543.636L348.397 543.223Z" fill="#AFC24E"/>
<path d="M520.916 544.294C520.916 544.294 504.219 521.662 523.637 493.024C540.053 468.812 516.731 445.73 516.731 445.73C516.731 445.73 542.889 465.401 525.311 496.791C507.732 528.18 534.309 543.666 534.309 543.666L520.916 544.294Z" fill="#AFC24E"/>
<path d="M535.572 543.98C535.572 543.98 564.382 438.171 509.311 408.595C509.311 408.595 565.912 425.168 541.691 543.98H535.572Z" fill="#AFC24E"/>
<path d="M551.673 544.087C551.673 544.087 574.931 439.966 488.389 425.633C488.389 425.633 572.768 428.608 556.812 543.817L551.673 544.087Z" fill="#AFC24E"/>
<path d="M565.151 544.121C565.151 544.121 560.321 529.841 574.81 521.652C589.3 513.462 579.85 498.343 564.521 497.923C564.521 497.923 581.11 496.663 584.68 509.892C588.25 523.122 565.571 526.062 569.771 544.331L565.151 544.121Z" fill="#AFC24E"/>
<path d="M504.372 405.401C504.372 405.401 489.887 410.867 473.489 405.948C457.091 401.028 447.252 410.867 447.252 410.867C447.252 410.867 455.998 396.929 474.582 402.395C493.167 407.861 504.372 405.401 504.372 405.401Z" fill="#AFC24E"/>
<path d="M104.337 543.783C104.337 543.783 105.389 484.606 65.937 481.713C65.937 481.713 105.652 478.82 108.545 543.783H104.337Z" fill="#AFC24E"/>
<path d="M86.3167 543.706C86.3167 543.706 84.6618 531.129 89.8471 517.78C89.8471 517.78 82.676 525.834 81.2418 544.147L86.3167 543.706Z" fill="#AFC24E"/>
<path d="M90.3359 543.809C90.3359 543.809 88.6977 529.353 71.9282 527.04C71.9282 527.04 89.9505 525.112 94.2871 543.905L90.3359 543.809Z" fill="#AFC24E"/>
<path d="M383.406 543.344H301.938C301.938 536.928 302.812 531.522 304.065 527.069C304.846 524.303 305.768 521.899 306.721 519.858C307.58 518.021 308.463 516.469 309.275 515.192C309.598 514.695 309.905 514.238 310.197 513.828C311.639 511.795 313.98 510.597 316.47 510.597C316.47 510.597 319.883 512.993 324.628 512.993C326.897 512.993 329.474 512.441 332.131 510.81C334.29 509.478 336.505 507.429 338.64 504.379L338.775 504.339C339.862 504.339 340.847 504.781 341.557 505.49C342.274 506.207 342.715 507.192 342.715 508.28V512.292C345.631 516.603 349.138 519.85 352.858 522.301C358.95 526.344 365.61 528.228 371.151 529.087C376.218 529.867 380.332 533.208 382.247 537.677C382.996 539.419 383.406 541.342 383.406 543.344Z" fill="#FA6142"/>
<path d="M336.528 536.645C328.356 534.745 323.406 530.915 323.406 530.915L304.066 527.069C304.846 524.303 305.768 521.899 306.721 519.858C307.581 518.021 308.463 516.469 309.275 515.192C309.598 514.696 309.905 514.238 310.197 513.828C311.64 511.795 313.98 510.597 316.471 510.597C316.471 510.597 319.883 512.993 324.628 512.993C326.897 512.993 329.475 512.441 332.131 510.81L347.389 527.014L331.067 516.137C331.067 516.137 327.252 527.873 336.528 536.645Z" fill="#D63A21"/>
<path d="M314.674 425.732C314.674 425.732 310.922 434.756 310.323 448.611L307.273 450.581L274.519 471.758L269.364 475.092H269.317C269.254 475.092 269.199 475.1 269.136 475.1C251.324 475.943 250.662 461.355 250.662 461.355C250.662 461.355 254.768 458.983 261.633 452.772C266.33 448.516 272.336 442.464 279.2 434.125C291.432 419.285 305.634 412.271 312.53 409.528L314.674 425.732Z" fill="#FFAD95"/>
<path d="M314.674 425.732C314.674 425.732 310.922 434.756 310.323 448.611L307.273 450.581C301.859 441.392 289.629 439.006 281.158 445.487L258.315 462.963C258.315 462.963 259.355 471.317 269.325 475.084L269.317 475.092C269.254 475.092 269.199 475.1 269.136 475.1C251.324 475.943 250.662 461.355 250.662 461.355C250.662 461.355 262.311 454.624 279.2 434.125C291.432 419.285 305.634 412.271 312.53 409.528L314.674 425.732Z" fill="#C14D3A"/>
<path d="M274.519 471.758L270.917 474.084L269.364 475.092H269.317C269.254 475.092 269.199 475.1 269.136 475.1C251.324 475.943 250.662 461.355 250.662 461.355C250.662 461.355 253.61 459.653 258.685 455.35C259.599 454.577 260.584 453.718 261.633 452.772L274.519 471.758Z" fill="#191E23"/>
<path d="M357.516 332.622L350.596 399.613H309.259L298.604 356.195L284.504 332.622H357.516Z" fill="#0864E3"/>
<path d="M309.259 399.613L277.19 332.622H284.504L298.604 356.195L309.259 399.613Z" fill="#191E23"/>
<path d="M347.546 399.613L347.215 403.601L347.121 404.689L345.332 425.976L339.444 496.23L338.775 504.19C338.727 504.253 338.688 504.316 338.64 504.379C338.585 504.458 338.538 504.529 338.483 504.599C328.292 518.904 316.47 510.597 316.47 510.597C316.47 510.597 317.117 505.75 316.345 496.23C315.832 489.956 314.705 481.649 312.365 471.364C310.457 462.979 310.024 455.239 310.323 448.611C310.922 434.756 314.674 425.732 314.674 425.732L312.53 409.528L311.221 399.613H347.546Z" fill="#FFAD95"/>
<path d="M383.406 543.344H301.938C301.938 536.928 302.812 531.522 304.065 527.069L323.406 530.915C323.406 530.915 328.355 534.745 336.528 536.645C339.208 537.267 342.234 537.677 345.544 537.677H382.247C382.996 539.419 383.406 541.342 383.406 543.344Z" fill="#FFF2FA"/>
<path d="M318.78 519.416L314.942 523.105L306.721 519.858C307.581 518.021 308.463 516.469 309.275 515.192L318.78 519.416Z" fill="#D6ABC8"/>
<path d="M339.6 397.104L350.596 399.613H309.259L298.604 356.195L284.504 332.623H350.407L352.425 347.66L329.837 371.572V384.863C329.837 390.721 333.888 395.801 339.6 397.104Z" fill="#384D5E"/>
<path d="M369.677 332.623H277.19C277.19 332.623 277.522 214.908 278.278 200.068C279.043 185.22 292.039 166.304 305.925 157.359L307.99 158.604L339.232 177.535C339.232 177.535 367.966 231.388 369.677 332.623Z" fill="#FA6142"/>
<path d="M364.27 273.529L345.268 283.664V332.623H277.19C277.19 332.623 277.522 214.908 278.278 200.068C279.043 185.22 292.039 166.304 305.926 157.359L307.99 158.604L339.231 177.536L319.718 172.389L320.356 188.861L308.109 209.974L315.501 236.582L336.986 241.618L364.27 273.529Z" fill="#D63A21"/>
<path d="M350.864 173.666C348.319 174.249 345.371 174.288 341.967 173.658L339.231 177.535L324.943 168.882L307.99 158.604L312.191 152.15L324.872 149.391L328.812 145.569L329.955 144.458L330.751 143.693C330.751 143.693 331.855 139.098 337.001 137.625C342.148 136.159 346.191 144.797 345.458 151.417L348.035 150.495L348.886 149.375L349.864 148.083L356.673 139.098L356.484 124.581L365.129 123.84C365.129 123.84 372.798 168.693 350.864 173.666Z" fill="#FFAD95"/>
<path d="M356.673 144.182L350.911 150.881L355.893 156.839L354.915 159.779L348.46 152.347L345.032 153.821C345.032 153.821 343.637 172.365 352.953 172.365L350.865 173.666C348.319 174.249 345.371 174.289 341.966 173.658L338.074 168.12C334.771 163.42 327.68 163.832 324.943 168.882L307.99 158.605L312.191 152.15L324.872 149.392L328.813 145.569L329.955 144.458L330.752 143.693C330.752 143.693 331.855 139.099 337.001 137.625C342.148 136.159 346.191 144.797 345.458 151.417L348.035 150.495L348.886 149.376L349.863 148.083L356.673 139.099V144.182Z" fill="#CD634B"/>
<path d="M365.13 123.841L356.484 124.581L356.673 139.099L348.035 150.495L345.458 151.417C346.191 144.797 342.148 136.159 337.001 137.625C331.855 139.099 330.751 143.693 330.751 143.693L324.872 149.392L312.191 152.15C310.348 150.395 309.464 147.862 309.82 145.342C311.074 136.447 315.799 115.766 332.95 109.079C355.018 100.48 370.504 117.149 365.13 123.841Z" fill="#191E23"/>
<path d="M356.521 152.47C355.786 152.47 355.175 153.039 355.122 153.772C355.106 153.992 355.088 154.21 355.07 154.424L349.864 148.083L348.886 149.376L354.818 156.605C353.603 164.895 349.959 167.582 347.148 168.379L329.955 144.458L328.812 145.569L345.413 168.674L345.412 168.674C344.503 168.706 343.852 169.55 344.076 170.426L345.103 174.443C345.306 175.236 346.011 175.805 346.829 175.834C362.38 176.378 366.235 160.437 367.125 154.585C367.294 153.469 366.428 152.47 365.3 152.47H356.521Z" fill="#FFF2FA"/>
<path d="M340.474 141.117C340.474 141.117 338.233 137.87 334.522 142.354C330.812 146.837 333.595 153.407 333.595 153.407C333.595 153.407 331.585 142.354 340.474 141.117Z" fill="#191E23"/>
<path d="M377.944 215.712V274.191H299.51V219.393L307.415 241.618H336.986L344.638 215.712H377.944Z" fill="#FFF2FA"/>
<path d="M344.638 215.712V274.191H299.51V219.393L307.415 241.618H336.986L344.638 215.712Z" fill="#D6ABC8"/>
<path d="M352.425 347.66C352.425 347.66 349.296 351.222 346.309 352.617C345.348 353.074 344.402 353.303 343.574 353.122C343.574 353.122 337.364 356.322 336.418 352.743C336.418 352.743 332.462 351.238 332.462 348.787C332.462 348.787 329.451 347.849 329.262 345.209C329.073 342.577 330.578 335.602 330.578 335.602C330.578 335.602 329.262 326.94 330.956 317.333C330.956 317.333 314.382 281.741 307.415 241.618H336.986L336.095 246.882L335.291 251.603L349.036 318.279C349.036 318.279 352.803 324.489 352.992 335.412C353.181 346.344 352.425 347.66 352.425 347.66Z" fill="#FFAD95"/>
<path d="M347.475 344.074L346.309 352.618C345.347 353.075 344.402 353.303 343.574 353.122C343.574 353.122 337.364 356.322 336.418 352.744C336.418 352.744 332.462 351.238 332.462 348.787C332.462 348.787 329.451 347.85 329.262 345.209C329.073 342.577 330.578 335.602 330.578 335.602C330.578 335.602 329.262 326.94 330.956 317.333C330.956 317.333 314.382 281.741 307.415 241.618H336.985L336.095 246.883C326.737 246.883 319.667 255.329 321.281 264.546C323.496 277.194 327.692 295.352 335.48 314.709V334.357L334.167 341.324C333.903 342.723 335.506 343.71 336.637 342.844L339.618 340.559L335.758 347.725C335.471 348.257 335.568 348.915 335.996 349.342C336.593 349.94 337.583 349.859 338.076 349.173L341.887 343.869L340.297 348.077C339.744 349.542 341.054 351.029 342.577 350.664C343.065 350.547 343.49 350.247 343.762 349.825L347.475 344.074Z" fill="#CD634B"/>
<path d="M347.215 403.601H335.286C327.493 403.601 321.444 410.4 322.35 418.14L323.004 423.722C323.004 423.722 320.466 447.831 322.098 475.747C323.729 503.67 323.911 510.014 323.911 510.014C323.911 510.014 331.492 510.795 338.483 504.6C328.292 518.904 316.471 510.598 316.471 510.598C316.471 510.598 318.26 497.263 312.364 471.364C310.457 462.979 310.024 455.239 310.323 448.611C310.922 434.756 314.674 425.732 314.674 425.732L312.53 409.528L311.222 399.613H347.546L347.215 403.601Z" fill="#CD634B"/>
<path d="M339.444 496.23L339.105 500.265L338.774 504.19C338.727 504.253 338.688 504.316 338.64 504.379C338.585 504.458 338.538 504.529 338.483 504.599C328.292 518.904 316.471 510.597 316.471 510.597C316.471 510.597 316.935 507.121 316.604 500.265C316.549 499.027 316.463 497.687 316.344 496.23H339.444Z" fill="#191E23"/>
<path d="M339.444 496.23L339.105 500.265H316.604C316.549 499.028 316.463 497.688 316.344 496.23H339.444Z" fill="#FFF2FA"/>
<path d="M274.519 471.758L270.917 474.083L258.685 455.35C259.599 454.577 260.584 453.718 261.633 452.772L274.519 471.758Z" fill="#FFF2FA"/>
<path d="M370.51 270.097C369.325 270.097 368.364 269.137 368.364 267.951V222.89C368.364 221.705 369.325 220.744 370.51 220.744C371.695 220.744 372.656 221.705 372.656 222.89V267.951C372.656 269.137 371.695 270.097 370.51 270.097Z" fill="#191E23"/>
<path d="M310.655 210.452L317.048 234.248C317.048 234.248 317.877 219.686 310.655 210.452Z" fill="#D63A21"/>
<path d="M347.266 284.978L361.707 277.48C361.707 277.48 355.458 284.7 347.266 284.978Z" fill="#D63A21"/>
<path d="M346.331 217.838V259.758C346.331 259.758 351.631 229.884 346.331 217.838Z" fill="#D6ABC8"/>
<path d="M352.858 522.301L349.698 524.792L339.823 514.223L342.715 512.292C345.631 516.603 349.138 519.85 352.858 522.301Z" fill="#191E23"/>
<path d="M339.797 516.506C339.528 516.164 339.587 515.668 339.929 515.399L343.868 512.301C344.21 512.032 344.706 512.091 344.975 512.434C345.244 512.776 345.185 513.271 344.842 513.54L340.904 516.638C340.561 516.907 340.066 516.848 339.797 516.506Z" fill="#FFF2FA"/>
<path d="M341.588 518.394C341.319 518.052 341.378 517.557 341.72 517.288L345.659 514.189C346.001 513.92 346.497 513.98 346.766 514.322C347.035 514.664 346.976 515.159 346.634 515.429L342.695 518.527C342.353 518.796 341.857 518.736 341.588 518.394Z" fill="#FFF2FA"/>
<path d="M343.38 520.282C343.11 519.94 343.17 519.445 343.512 519.175L347.451 516.078C347.793 515.808 348.288 515.868 348.558 516.21C348.826 516.552 348.767 517.048 348.425 517.317L344.486 520.415C344.144 520.683 343.649 520.624 343.38 520.282Z" fill="#FFF2FA"/>
<path d="M345.171 522.171C344.902 521.829 344.961 521.333 345.303 521.064L349.242 517.966C349.584 517.697 350.08 517.756 350.349 518.099C350.618 518.441 350.559 518.936 350.217 519.205L346.278 522.303C345.936 522.572 345.44 522.513 345.171 522.171Z" fill="#FFF2FA"/>
<path d="M346.962 524.059C346.693 523.717 346.752 523.221 347.094 522.952L351.033 519.854C351.376 519.585 351.871 519.644 352.14 519.987C352.409 520.329 352.35 520.824 352.008 521.093L348.069 524.191C347.727 524.46 347.231 524.401 346.962 524.059Z" fill="#FFF2FA"/>
<path d="M348.894 543.344H301.938C301.938 536.928 302.812 531.522 304.066 527.069L323.406 530.915C323.406 530.915 328.355 534.745 336.528 536.645C339.31 539.277 343.282 541.641 348.894 543.344Z" fill="#D6ABC8"/>
<path d="M257.812 533.088L217.477 462.307C223.051 459.131 228.181 457.214 232.67 456.097C235.46 455.406 238.005 455.016 240.251 454.834C242.272 454.671 244.058 454.669 245.569 454.743C246.161 454.778 246.71 454.818 247.211 454.869C249.691 455.115 251.891 456.555 253.124 458.719C253.124 458.719 252.732 462.87 255.081 466.993C256.205 468.964 257.96 470.93 260.692 472.43C262.919 473.647 265.796 474.556 269.503 474.902L269.604 474.999C270.142 475.943 270.246 477.018 269.982 477.985C269.713 478.964 269.076 479.835 268.131 480.374L264.646 482.36C262.344 487.028 261.259 491.683 260.971 496.128C260.474 503.423 262.135 510.142 264.132 515.381C265.963 520.17 265.096 525.399 262.162 529.276C261.019 530.789 259.551 532.097 257.812 533.088Z" fill="#FA6142"/>
<path d="M240.423 489.043C238.027 481.002 238.904 474.805 238.904 474.805L232.671 456.097C235.46 455.405 238.005 455.017 240.251 454.834C242.272 454.671 244.058 454.67 245.569 454.743C246.161 454.778 246.71 454.818 247.211 454.869C249.691 455.115 251.891 456.555 253.124 458.719C253.124 458.719 252.732 462.87 255.081 466.993C256.205 468.964 257.96 470.931 260.692 472.43L254.168 493.71L255.537 474.144C255.537 474.144 243.452 476.64 240.423 489.043Z" fill="#D63A21"/>
<path d="M257.812 533.088L217.477 462.307C223.051 459.131 228.181 457.214 232.671 456.097L238.904 474.805C238.904 474.805 238.027 481.002 240.423 489.043C241.209 491.679 242.351 494.512 243.99 497.388L262.162 529.276C261.019 530.789 259.551 532.097 257.812 533.088Z" fill="#FFF2FA"/>
<path d="M246.605 465.092L241.5 463.583L240.251 454.834C242.272 454.671 244.058 454.669 245.569 454.743L246.605 465.092Z" fill="#D6ABC8"/>
<path d="M260.971 496.128L257.242 494.615L261.536 480.802L264.646 482.36C262.344 487.028 261.259 491.682 260.971 496.128Z" fill="#191E23"/>
<path d="M259.539 481.911C259.703 481.507 260.163 481.314 260.566 481.478L265.208 483.366C265.611 483.53 265.805 483.99 265.641 484.393C265.477 484.796 265.017 484.99 264.614 484.826L259.972 482.938C259.569 482.774 259.375 482.314 259.539 481.911Z" fill="#FFF2FA"/>
<path d="M258.786 484.402C258.95 483.999 259.41 483.805 259.813 483.969L264.454 485.857C264.858 486.021 265.052 486.481 264.888 486.884C264.723 487.287 264.264 487.481 263.86 487.317L259.219 485.429C258.816 485.265 258.622 484.805 258.786 484.402Z" fill="#FFF2FA"/>
<path d="M258.032 486.893C258.196 486.49 258.656 486.296 259.059 486.46L263.701 488.348C264.104 488.512 264.298 488.972 264.134 489.375C263.97 489.779 263.51 489.972 263.107 489.809L258.465 487.92C258.062 487.756 257.868 487.296 258.032 486.893Z" fill="#FFF2FA"/>
<path d="M257.278 489.385C257.442 488.981 257.902 488.788 258.305 488.952L262.947 490.84C263.35 491.004 263.544 491.464 263.38 491.867C263.216 492.27 262.756 492.464 262.353 492.3L257.711 490.412C257.308 490.248 257.114 489.788 257.278 489.385Z" fill="#FFF2FA"/>
<path d="M256.525 491.876C256.689 491.473 257.149 491.279 257.551 491.443L262.193 493.331C262.597 493.495 262.791 493.955 262.627 494.358C262.462 494.761 262.003 494.955 261.599 494.791L256.957 492.903C256.554 492.739 256.36 492.279 256.525 491.876Z" fill="#FFF2FA"/>
<path d="M240.725 503.104L217.477 462.307C223.051 459.13 228.181 457.214 232.671 456.097L238.905 474.805C238.905 474.805 238.027 481.002 240.423 489.043C239.514 492.763 239.426 497.385 240.725 503.104Z" fill="#D6ABC8"/>
</svg>
